# xmcd
#
# Track frame offsets: 
#        150
#        23831
#        46748
#        66127
#        86846
#        102026
#        117933
#        136480
#        153799
#        179992
#        192807
#
# Disc length: 2827 seconds
#
# Revision: 0
# Processed by: cddbd v1.5.2PL0 Copyright (c) Steve Scherf et al.
# Submitted via: ExactAudioCopyFreeDBPlugin 1.0
#
DISCID=8f0b090b
DTITLE=Eberg - Antidote
DYEAR=1900
DGENRE=Blues
TTITLE0=Antidote
TTITLE1=Been thinking of you
TTITLE2=The right thing to do
TTITLE3=Reykjavik
TTITLE4=No need to worry
TTITLE5=One step at the time
TTITLE6=The boy likes them both
TTITLE7=February sky
TTITLE8=Your kindness is cruel
TTITLE9=More then less now
TTITLE10=Daybreak
EXTD=
EXTT0=
EXTT1=
EXTT2=
EXTT3=
EXTT4=
EXTT5=
EXTT6=
EXTT7=
EXTT8=
EXTT9=
EXTT10=
PLAYORDER=
